<mxfile host="Electron" modified="2024-02-15T08:20:14.983Z" agent="Mozilla/5.0 (Windows NT 10.0; Win64; x64) AppleWebKit/537.36 (KHTML, like Gecko) draw.io/21.2.8 Chrome/112.0.5615.165 Electron/24.2.0 Safari/537.36" etag="57homRpGwlfluFWGzwHV" version="21.2.8" type="device">
  <diagram name="Page-1" id="2XWkQP5S-hDbL94sL5Vg">
    <mxGraphModel dx="2058" dy="1180" grid="1" gridSize="10" guides="1" tooltips="1" connect="1" arrows="1" fold="1" page="1" pageScale="1" pageWidth="3300" pageHeight="4681" background="#999999" math="0" shadow="0">
      <root>
        <mxCell id="0" />
        <mxCell id="1" parent="0" />
        <mxCell id="APLwThIm-aDqV8bCMrbt-1" value="CheckBox" style="rounded=0;whiteSpace=wrap;html=1;fontSize=25;fillColor=#dae8fc;strokeColor=#6c8ebf;" parent="1" vertex="1">
          <mxGeometry x="1298" y="140" width="650" height="60" as="geometry" />
        </mxCell>
        <mxCell id="SHlW_YV8UnFKNWcD4ugj-1" value="" style="shape=image;verticalLabelPosition=bottom;labelBackgroundColor=default;verticalAlign=top;aspect=fixed;imageAspect=0;image=data:image/png,iVBORw0KGgoAAAANSUhEUgAAAowAAAFZCAYAAAASKH7XAAAAAXNSR0IArs4c6QAAAARnQU1BAACxjwv8YQUAAAAJcEhZcwAADsMAAA7DAcdvqGQAAD2cSURBVHhe7d0JfBT14f//9yabQBJuAQWUK9yXeKIgKgpWURDx6/W136otXq2KVx/tt7Va21+rf88e2mq/VjxqxdYL0WLl8kCU4i1IRAnIKVcghNzJ7n8+M7PJ5hqSXbJH9vVMZmfmM7M7szOTz74zMzvjGzV6TFCNCAYbLTYD1MSQFBb7JdLU6gEAoC3z+dyOmIrLRFtVzTtqZIH6GitrLDA2GhabDIqtk1wIREg6bLRA4opPygAiFt0m27In22MfIDjWCYzND4pWGZ+NB0eEC5LFj/hh6/MWVS0P4ADi8hfWxv7hcN5Ow/fkFDdSbpXZgbHVgmIUqZKPpEQUh7WSRBsC2yyQuJLq4z4uM5tUSyglRLVGWhBwGwuPTlG9spGjRjf8nGsQFhsJio0GymQXh3cU4STb3rJPdUm0Rtn4Wk/z63i0GAs30cRljUQ80ba1/djvpn4gdArtbqP+OHUDYyMhsMHexxYFxSg+WaJ4aqTiMMk4SI0FmxrrEkAiq/txHCMxn2hc3mVSiXgJRbVom/dke6xmBsfawFgvCHoHRbfLatUbK8lF+G6iWAhta/m1hjgsoRRZKWx7iJe6H08JLi4zm1RLKOaiWjoRP7ntrBP7ndQ+2Jzeuu8xPDiaRycw1guDDbNiqMBtW616ozSheWM1KsKnRjHFOIntG02+5ZMqkmjNsBElnrr1PBrFQvISl6UT8USTa10m3tt0Xth+rH2w1b+cTp3QOGLkqLDqv15YrL9X0fl11e9PFFHMUYRPTbxl4CX2yycaybVs44ElhFRS98MMDUW8hGL/xKRSL0e1UOIto/p7D8Me3E6n2wiNGxYY64bF+nsVa3vDQ6RRt68Oj0EHEsVTIxe+AFogLvMaFxG+0xRZQKmzHQBojtqP3BiKeKJxmduYi8/iiezJrTfJ2oF2lxsOw0OkUX+YGxjDwmKdQGgPcvvrBsqG/Y054AhNi/CpUUwxCqnyPlNFEi3dJNsQ2G5bR20V38bF5Y2mzNKNuYiXbFSrJPbrMxHfpz3UDYNGKCy6rdBDnfF8w0eMrK3D64XF8BDpz8hQTk62MjMyldkuU+np6a1a+4fPCRqRVIsn9jPL1gMg3pyP2ViLz1QjkkSzGg9ufGsd1ktXV1ervLxcFRWVKikpUVVlpVXuTDMUIGserYLawOgRFjt27KjOXTpr955ilZZXqKy8SpVV1e4IbVlbjR3J/L5iPe9tdRsIVQUh3v+i1R23aeY1mjvuQRWPiSbSphGXhZ5Y6q+OWC+SSDaHpuYxkTYttF0Zfr/at8tQVrtMde/aWXv3Fqpo3z5rw3S2zPqh0QmMTYRFcx5j9+7drZJ0bdtZqIrKKmdASmirf7LJ/r5iPf9tdTsIVQO1vCJj/XGbYl6hueMeFDGdWD2JtmnEc1mgRks2i6ZWWdutdZCoMjP86tW9m/zpPu3YsdMttbZReyN1ttS0xsOiaQfVqWNHqytd32zdnWJh0aD2BZBESBkJoSWfHKwyJAqT8b7ZtkNV1c5RZeeLz7WZ0EizHw0THN0Bpm12VZrD0GbPYuoyf/qhpq1KtvcX63lty+seUUnETcOp15FEzCpjtSFRbNtVoC6dO9sZMDwTmnaas6FaBXbb6nI7cjrk2Ocspt6exaa0xeAQ/p5Md3iTyGI9f4m+PBA3ibhphCpzxE0km0X4aqPGQbyYzLdrb6Gyc7Lt/lAmNG1nD6NdYFJk7RDzbWjzBReES/Y/4/Aq6UDMe03k90uVigSRiJtiS/7U0SqirUGjfT4QKZP9TAYMpcXQ4enacxhDFYzbby6dY74NjbYkvPppblVEleVgOcBDIm4eoTodcdWSTaOxVUbNg1grK69Uu3bt3GzobpVWyzd02HD7ALVTZHfa7f79+mv111vt0qZ06pitDH/taZDNZS7Js6+o1O1LJu6CSzmJ+r5jPV9tZ/039iEUqgUa09wPLfMKMf2AS6RP00TdPEgccRfJphG+2tpOzYNkMTK3nzZ8s8Hq8tV8U9oKjMPCjkQ7Habdv38/ffH1Nru/KQ/e+xvlDsp1+xoXupH1lm931QTV4n27dfOPf660tHSnICmk6p9sIr/vWM9b29gGmsoPBMYoJNumkSjLLUVEunmEr6a2UfsgWYzI7asNG76pDYtWR1rNVhgWFpurS+eOGjlssGczYuggu5lyygk641Sn6dH9kBZNJ77MfCbLvB4sofecau+77SMnwMafdtIxf7v8/Ubv17ffpo1rV2vLurxGGzPMjJNoli9+XePHHe/2NWSGvbtogdt3sISOOltdVodv6NBhTr/1aEcEd2hz9jA+9deHdPjhuXr5na/kS7NezDTppglo6pGDdNihnbV/f7E9bk5Ojl54d73dPaBjib57+dVKT/fb/U35weWX6le3/9Ttk+Y89axu++VvNf+FZ/Tp56vt7mhtyf9cfQaOdvtqrfrwHXXt2sXtkzXOKLerrUumT5JYz2syLZuGDvRhwx7GKCTrpkECiYloNo/GVlFy10TxZQLhlLPP1bbtO9ySurpZn/tvL1ygvkNGuiWJwQTCh353r6678cdavuI/bqnDa1iknD2MoUPSzlbY8hMQw1gvY71QutYX7teGoiJ9U7JPm8oLtblyryorA1b4tBr3JyQ9s3m3FPx/v/yZHRZNmAs1R46O7QqcedFl9nRNUF225DWrhNoVqYetvhmSdSGRPBKeWUWspoMnPT3dDov79u1rtNnwzUZ7nERjgqAJhCYYhu9pbI2w2JSoAmN1IGC3exzSTr7MKhVW7dPOst3aXurcVsZXbytv37VM2d1L3D5vV3zvEjushZt2/qVuV2yt3/CN22WYT4bGmlSRau83tbGmWyBZF1YokYQ3OKgOxqYRvlr4u0xN9UNjLMOiUe/C3e4maQ5Lh2+dTQiNsmb7Zq3fu017q/aoVEWq8O23y4PuVm32RBo5XfYru4MzzIvZu/jRx5+5fU0zh5NNs2zJq26JI1RuGnNYO8Qcyg6Vm+76miqfMW2q3nx7udvnzF/odUzjTMNn74Wc85c/2uOMO+4Ya9gqu912hFdTpjvUoC1KijXbjHoqptrKn0SiLdc24GBvGm1lU0PLhIfGVg2Lpg6w6wHrwT1VMcpD0o5SKyBmZFUqo32l/O0qlGE1NmsaobBoDOtxhAZ1Gej2edu1e7fb1bjQHkjTmNvYhIKhOfcwdCjZNDddf41dHgqCofL6eyvN88yh5/DyF5970g6EA/r3rTlf0kwnfNpmWubQ+bjjjtZJp52j4445yg6J9/9/v9Ltv7pLK1Z+aD8veVAFAbA4nxE4yKKpYRtbJfGssRv70khjTbzwaXZwRRUYQ+ygaDUZ7UwTFhittRW+gQ/qmms3zdH9kEPcrsaZcBeyfsNGK9T1s0Ob+aJKKOiZxvSbchP6/t/d97vPqMvsoXx5/oIGX6IJBc8fXDPbfi3jpPHj9MaipXa3sWLlR/be0Glnn2n3P/jHR+zpf/V1vv76RMO9lcnB/JnV/1Nr6k8vnp8qsa4OYj09IM4IjQnHrJJEWS19coc1q4mXtrj5hh+GDj88HQsHJTA6YdEJipmmnekERucb16FVFlRFZaVKS8vc/qbNf+11HX3UGLevZfbs2Vuz9y/UmFDnxeyh9PpCjXm+eV0TPJtSe55jW9pEQ8ExEcNiCCEOTQhVP/Fo2pK2/v7i4GDUWuGrgVowNdQ/Z7H+OY2tLbrAaG2l5eWlGtc9V8d2HayjOw3R2JzhGpM10i53RnE2ZZMdA4FAzRdlvIT22pnDxOEaO78wXCgYmnMM6zN7IW/76S1uX12jjpmorl07a85f/uCW1BXac2lef9nyFTpj8iR3iDPMhNu/PvE3qy+om66/1t4zGTo03TYl2qcG1SXqSYTN02yWoaatSaQ//yR1sDeN8M0tvIm1eEzTS/35qa6uti+d05TDDj3UHifRNPUFl1iGxqgCo8l+w4ceoasnTdbVp5yhKyeepVkTp+sHE87VsKGHKzs7Rz179lC3Q7opIzPDDoxpac3bnMy5hCs//Ljm0LJpXp7/L3do08zhY3OOYeg5oS/EmNczoTBUXj98hs4/DA+poUPbpm1CoGEOM5vD4aHXCR+26sNl9jyb8xYf/OOf7WFtNzQmmkSrphAzof9fwptEkCjz0Vra+vuLkWhqruasgljXjOHzZKZdv4m1+vPz5N+eta+z2Ni5lqb5zztL7HESibkO4r2/ubNBWAwJhcb7fvsrt6R1+IYMHWYtz6D7JRi3bT30799fX6zzvnD3jddfraPGNn3oOC0tzW5MWg+/s8tnn67SvQ/+UWkHuHB38grfRNuiRH1/sZqv5Fu/zamow6+XakRSuZtXiMeHAuKIFR61g1GjeK2GeNZY9ecr3rVnos1Pc5nQGMs75I0Y6F6421pg9pFia/pOYLRmwv4x82J3SwOaERjtC3MHzMW5W8asMJ8VJH2+g3IKZQJKlk0wUon6/mI5X8mzjutXkE1x/vJrNfd54cwrRPI8JDlWetQORo3itRriVWPVn6d415yJNj+JygTG9VZgtJeXCYtWE1ViM4HP7CU0t/hrSWOe03bDYjizqL3+hIHoHGgLY+tDTPCpG7XW/rQIvX79JtbiMU0viTY/iSwVUlucsBkivvgwQEwRGg+KaP6GIlkFrf03a+Yp1ISYaTbVtLZEm59kQmBsNY1tlm0Ff0YAGtEWq7skk8ifOok2X2yuLUNgRIQIjUBMhe/2iHXTEnwKR62li7wxLVkNB2N6aPsIjC1m/gwP1KSKSD5NALRYvP/MWjr9VKoGW0msa9fQ9Oo3sRaPaXpJtPmJJwLjQcfmheTHVowGWrpREBoPimj+Fg/GKjjYdUFot4rXvJlpNtUcbOHzU78JaWw+Qk0qsQKjezEN98FZSPUXF2o1trkcqN8ILwsvT3ZsJ21FW9w624xE+TNr6cZB9RB3ifxpnuibRypvvnYadC+zaC8Jq5s9jFE7UA3a1EdwW/hYTrQ/p7awTOMllavGJGFWUaiJp5b+mbFpRe1g1GzRrAZqVhgERkQgET61mkLVhhQQ+hO0G+vBq2kN/JnFnFnk0S72aLaG0PTrN7EWj2l6SbT5aU2+IUOHOnebsR7sH3uLCtp3elm4cKHpAQAAQIqYPGWKNqw3twY0d3kxwdi+NSCBEUB8/fLlr/X7NzZqb0mlW9JQl+wMXT6xjx68ZKhbAgBoDY0FRg5JA4irG/+epztfXucZFg0z/Hf/3qA7561zSwAAsUJgBBBXTy7b6nY1jwmNAIDYSpN7CNpt2cxhabcTAFrVgfYs1re3pMrtalzljg/1z/t/omtnXakbfvkXLc4vcYe0THDjHJ1/7BV6YYdbEJUSrXnyVt25YLfbDwCJLZQDQ5mQPYwAEt5lJ/Vxu7ztemO2jhn0Hd210qfcsaPUffs/NGvsCF349HpVu+M0bbNevGGGbn21wO7zdR6rmd8/RyM62L0RKlX+v+7Wd8eN1inXz9WGYIZbDgDJhcAIIKE9MWu09diMYx4F83XzFf/UsL98qg/m3q1br5ut2/+8SJ/96wKtuflazdlkvUagQiXFZaoKBlSyY4PytxbJ2V8ZVLC6Qps//VzbSverqLRKwY4jdd5lZ2twlj2CLVC6Sxvz87W1sLJ2jmpes0r7t+Vrw87SsLkt1IrXV2v47Y/opiPbu2UAkHwIjAASxoyje7pdDhMWl+btbtZ5jruXPqPFh/5Qt1/Qp07F1vGk6/XDMZ/quQWbpK1zNG3Uf+lHlx+vsSefpSlHHqHccx9RXvlX+sNZk/Sbj7dq/vXjNeKc32vtlsc1beQP9GqheZUSffK7szWw9yidNu0sHde/t467+Q3tMoPs15yhWRcfr+MnT9WJA3prwl0fq9wM02G65A9P6+dnD1KOAnYJACQjAiOAhGEunTNn1ii7uyVh0ewh3Jm/Xv5hI9Un3S2qcYgGD+2kXZt3OnsTd/xH3056QV/krdG6b17TBWvv1O2vdNXsN97SbUf11rmPfqpNi2/R0LAr8lZ8dJcuu6+9fv3pJn29+ktt+uoxjfjnVfrF4iJnhJ2rVX3J61q9Ok95L12obY8+pvciO3USABISgRFAwnhi2Ra9lbdH6+87uQVh0ZHuT1d1RYV7iDlctSrKA8rMbu9UeF1O0kVn95PfdGcfrWnf6aZ1qzfVPM/vb3ie4cZ33tT+0y7XtL7OsLTuk3TRGX59tHKjs9+w64mafnJP+64PnYcfo0GBndpVZgYAQNtAYASQUExoPOr25S283I5PvceMUfp7C7Rir1sUUrpKi5eVa/RRfZ0Kz99eWTWZsEolxRVKy/B7VIZBBQMBVVlhNPygcpovTWlp5nK2pscvf+gF0tKVTs0KoI1JMydn197ppabH/gWA1mYOQ9fndemcLtn2vsEGck6+QTcNeV03Xfe0vipzK7DKLXr1Jz/Us4feoBsndXTKdi/XK8t22VVcYMciPbMgqPEnD7ICY5r8/oBKSp2zD2v5dMSJJyln6VN6ZaMzX4Fdb2ruwnRNmDjACYwA0JbYVajJgm5darX5PxhAXN34nX5uV/Nc3tQldjJG6MYXn9flu+/QcT176PB+h6tHj1GavfZ8zX35Fo3KdMfrOUCFD5yg3BHDdMTgWVpz8SO6fWK2NaCXJkw5VAuvOUHDpz6oL9160mh/wm16/IYi/e+oXho80nre0B9p67VP6o4Tw75CDQBtmG/wEHMvaSdFOoHStM29pAdo0SLuJQ2g9d309y/tQ9EHupf0jWf00x0zct2SpgRVsXebtuwuV/vufXRY58zavYCbH9XpJ72t6z/6q07ev1X7O/TREd3ahe0lrFbJji0qyDxMh3eSSsuCyshqJ787QvX+7dq4vVQ5hx2hnjnut2uqy1VijWfOkbTHM5fZKa1WRnaWMmpeOKjqsmJV+Dsoq/EdpACQMCZPnqL1G9ZbdaNViZn7SVtlBEYAqSMUGD95RjO6uGUAgDoaC4wckgaQOoLpap+d6Zy8DQBoNgIjgNRxxCy99sUcTe/q9gMAmoXACAAAAE9WYKx7bMY5j9HuBAAAQCqysmB4HGQPIwAAADwRGAEAAOCJwAgAAABPBEYAAAB4IjACAADAE4ERAAAAntLMXQHNF6edr06bx/AvUQMAACDV1ORC99bR7GEEAACAJwIjAAAAPBEYAQAA4InACAAAAE8ERgAAAHgiMAIAAMCTExjdK+nYl9gx36B2fwAAAJBanAxoB8KaNMgeRgAAAHgiMAIAAMATgREAAACeCIwAAADw5Bs0eEgwdJ/AoPnWi90d1IABA7R40SJnLABoRb98+Wv9/o2N2ltS6ZY01CU7Q5dP7KMHLxnqlgAAWsPpkydr/fr18lk/8lmPVsMeRgBxdePf83Tny+s8w6Jhhv/u3xt057x1bgkAIFbswGh/Zdq+pk6o2+4EgFb35LKtblfzmNAIAGhd9kFnt9v0sIcRQFwdaM9ifXtLqtyuxlXu+FD/vP8nunbWlbrhl3/R4vwSd0jLBDfO0fnHXqEXdrgFEQmqcNXzuvvmKzXrujv19Ae7FXCHAEAyITACSHiXndTH7fK2643ZOmbQd3TXSp9yx45S9+3/0KyxI3Th0+tV7Y7TtM168YYZuvXVArvP13msZn7/HI3oYPdGZuOfdeEFj6lg8CSdOuAb3X/GeN3ydrE7EACSB4ERQEJ7YtZo67EZ58kUzNfNV/xTw/7yqT6Ye7duvW62bv/zIn32rwu05uZrNWeT9RqBCpUUl6kqGFDJjg3K31okZ39lUMHqCm3+9HNtK92votIqBTuO1HmXna3BWfYItkDpLm3Mz9fWwsraOap5zSrt35avDTtLa4YF25+qB97+l+659r/13Vse0u+/59dbi9a40wSA5EFgBJAwZhzd0+1ymLC4NG93s85z3L30GS0+9Ie6/YI+dSq2jiddrx+O+VTPLdgkbZ2jaaP+Sz+6/HiNPfksTTnyCOWe+4jyyr/SH86apN98vFXzrx+vEef8Xmu3PK5pI3+gVwvNq5Tok9+drYG9R+m0aWfpuP69ddzNb2iXGWS/5gzNuvh4HT95qk4c0FsT7vpY5dYgX88RGtkjNDflKtoXUMdDOivdLQGAZEFgBJAwzKVz5swaZXe3JCyaPYQ789fLP2yk+jRIY4do8NBO2rV5p7Nnb8d/9O2kF/RF3hqt++Y1XbD2Tt3+SlfNfuMt3XZUb5376KfatPgWDfXZT7ZVfHSXLruvvX796SZ9vfpLbfrqMY3451X6xeIiZ4Sdq1V9yetavTpPeS9dqG2PPqb36pw6GdDOBT/Tj5eM0Q8vGGQuVAEASYXACCBhPLFsi97K26P1953cgrDoSPenq7qiopHDvdWqKA8oM7u9U+F1OUkXnd1PftOdfbSmfaeb1q3eVPM8vz/D7aq18Z03tf+0yzWtrzMsrfskXXSGXx+t3Oh8iaXriZp+ck87CHYefowGBXZqV5kZYAkW6j/3nqMTbinSzxY+pYt6ExcBJB+r/nTOtql9dC7i7RYAQEyZ0HjU7ctbeLkdn3qPGaP09xZoxV63KKR0lRYvK9foo/o6gdHfXlk1mbBKJcUVSsvwe/z3bNWJgYCqrDAa/g3nNF+a0tLsy9paPX75Qy+Qlq70UHdwl16/8Tu6+pOZmv/B3/Q/g9u5AwAggdVkQKvDvqGLHRgBIH7MYej6vC6d0yXb3jfYQM7JN+imIa/rpuue1ldlbm1XuUWv/uSHevbQG3TjpI5O2e7lemXZLrsCDOxYpGcWBDX+5EFWZZgmvz+gklJz9mE4n4448STlLH1Kr2x05iuw603NXZiuCRMHeB5eLnn3N7r1vama8/gsDc+yKl33ercAkGwIjADi6sbv9HO7mufypi6xkzFCN774vC7ffYeO69lDh/c7XD16jNLstedr7su3aFSmO17PASp84ATljhimIwbP0pqLH9HtE7OtAb00YcqhWnjNCRo+9UF9GZbt2p9wmx6/oUj/O6qXBo+0njf0R9p67ZO648Swr1A3YnfeF9r82T06pWdndenSxWnG3qaVLbv0JADEnW/Q4MHuLaRN7ej8B2w6B5p7SS/mXtIAWt9Nf//SPhR9oHtJ33hGP90xI9ctaUpQFXu3acvucrXv3keHdc6s3Qu4+VGdftLbuv6jv+rk/Vu1v0MfHdGtXdhewmqV7NiigszDdHgnqbQsqIysdvK7I1Tv366N20uVc9gR6pnjfrumulwl1njmHEl7PHOZndJqZWRnyV9ZrKKyuleA9PmzlGO9F/5bB5CoTj99svLNvaStOq3mftIERgApIxQYP3lGM7q4ZQCAOhoLjPyTCyB1BNPVPjtTaeb/YwBAsxEYAaSOI2bptS/maHpXtx8A0Cxp9lcFnYeaFgAAABDCHkYAAAB4IjACAADAE4ERAAAAngiMAAAA8ERgBAAAgCcCIwAAADw51691H2q63bu+AAAAINVYGdC+DWBtGmQPIwAAADwRGAEAAOCJwAgAAABPBEYAAAB4IjACAADAE4ERAAAAnuzAaH9l2n0IfX0aAAAAqasmEwaD7GEEAACANwIjAAAAPBEYAQAA4InACAAAAE8ERgAAAHjy5Q4aHLTY34Cxf8xXYqyHgQMHaPHixc5YANCKNm7cqK1bt6qqqsotacjv9+vQQw/VgAED3BIAQGs4/fTTlZ+/3kqJPuvXaqwyKzAOcvNieGg0gXGglhAYAbSy/Px8VVRUqG/fvnYobEp5ebm2bNmi7Oxse1wAQOs4zQ2MVlZ0A6OPQ9IA4mvHjh3q06ePZ1g02rVrZwdFsycSABBbBEYAcWUOQ5sw2BwmVHodtjaq92/R5+8s0MsvvKj5i/6jdQWV7pCWCe79UH976Hmt2u8WRCJYrt1r39fC+S/qxdeWae0e73kHgERFYATQZhR/NV8P3fe43tzs0yG9D1X2/s/0wh8e0N8/3qOAO07TCrV6/tP6V16J3edr30ujjh2mns3Lso0rWat3V+5WzhG56pvxtV7609Nauafm3gkAkDQIjADahpI1eu35z9XjvNm67pIzNfHECTp9xizNvny0drz2sj4sNOdpV6uyokqBYFCV+/eoYF+5GySDCgaqVbjtWxVVVqi8MqBgu0M18uhh6h52pDxYWay9BQXaV1ZtPcNV85oBVRQVaE9xZe2wnNGafunZGj/2SB075RyN77pd+VvL3IEAkDzSu3Xr9ku3u46uXbvqsssuc/sAoHWYb0ibcxiby3zxpbEvvZR8uUgLtg7T+ecMUwfzlT6Xv0sPae1SrfKP0dEdP9ech5dq47Zlen3ph/po2RK9uyFLQ0e21ydPPqY3Nxdp+9ef6oOvfRqWu13PPfSeso4dpR7+Sm1792n96cmF+iRvld5fslSfFvfSyCGHKHPfSus1Fyt/07ta/PZHem/xYq32DdFR/TvW+Y88sO8rvbeyUP0nHqfDs8JmEAASzJNPPaU9e/bypRcAbU1QxQV7lNbjUHVqUKtlq3uPdiouLHb2Ju7fpKKB39VNN9+sH//kco3etVgL12Rpwvev0qTenTTivNn66ayJ6hGW6aq3vql/vO3XGbN/qltvukU/vXWmen7+ohauK3dGKN6u4JFX6MabbtbN3x2johUrtdE+dTKo7cse1313/Ub3zV2vAedfqOO7ERYBJJ80+9iJuaSOadU8hLUBIAn40nwKVFc3cq5iUNVVQfkz/Pa1xJTVX2OGdXH+W87oreFDsrR7e2HN89LS0t2uWnvX56si9xgN7+IM8+XkaszgdG3dtNepKrP6anj/Dvbrt+/ZR4cEi1ViB0afuh93oa669mpdenInrXn2L3rlKw5JA0hwoUBofp0WexgBtAU+derVS2kbv9Sm+nms8lt9vaFKh/bu4gTGNL8yajJhQBUV1UpLT3OGNcq5Nm39MGofpLFCqtOTZgVNp9PuDnux9HYd1KlLd/UZfqrOOiFL+as3qcIdBgDJgsAIIK6ac6mcEHPx7qau15jZf7xO6r5Wr877WLuq7H+Ppep9ynt9nj7tMEEn5bpfdy75Rms2FNv/MQf3f61PvpT6DjjEDoBpaUFVNpgXn7r07afM/I+0Zq/7FZnifH32tU/9+ne1hjatYte3qrmSTnCftm0uVla3zspwiwAgWfClFwBxFQgEtGvXLvsOLl4X7zahcvPmzerUqZNdPzWQlqO+I/qq/OP5en7+Ur23YrneWvKu1mUcp4v++xQd3s6KduVb9NFn+6Qdy/Tvt9/XO0s/U+UxF+j843pYIS5D/n2fa+G/l+vD9UENGpauLz/cqyNOGKVDD+mrPtUf6aXnXteKjz/Q2299If/4izXjyK7ym9f8wBmvp5n98q365IPd6jNutDptek1//ssrWvHJh1q+ZJnWdzxZF541XB0bHvUGgITx5JNPac/ePfY/0uabL/YXX3Jzza0BzQ0BrX+A7QPV9s0BNXDAQC1Zwq0BAbQ+c3vA7du3q7q62i1pKD093f429YFvCxhUdVmR9hVXy5/TSR3ap9fuBSxcocce2aDx15+v/hX7VJHZSZ2z3XMbbQFV7t+nEn9HdW4nVVYFlW6F2NAh5kDFfhUWVSqjY2d1yHQP0ASqrPGs+ctwxzOX2akMKC0jQ+lWv3nOvqIyKatLvWkBQGI67bTTlb8+n8AIIEWFAuPsizSivVsGAKijscDIOYwAUkia/Jnp8pn/kAEAzUZgBJA6Oh+ny2/6Lw3PcvsBAM2SVvuPttNlP/LfNwAAQEoLz4jsYQQAAIAnAiMAAAA8ERgBAADgicAIAAAATwRGAAAAeCIwAgAAwFNtYAy7lE7YBXYAAACQYszN/2pY3exhBAAAgCcCIwAAADwRGAEAAOCJwAgAAABPBEYAAAB4IjACAADAkxUYg7UX0LG/Q83ldAAAAFJXKAtabff6OuxhBAAAgCcCIwAAADwRGAEAAOCJwAgAAABPBEYAAAB48g3MzQ06X44OWr/mG9OmLeUOHKAlS5Y4YwFAK5o3b54WLVqkkpISt6Sh7OxsTZgwQRdffLFbAgBoDaeddprW5a+Xz2cFRfNjdbiB0QmJ4aExd+BAAiOAVvfss8+qqKhI5513nrKystzShgoKCrRgwQL16tVL06dPd0sBAAfbJCsw5ufn14RFkxw5JA0grpYvX64zzzzTMywa3bp108yZM7Vw4UK3BAAQKwRGAHFlDkObMNgcJlQ2edi68EM9++C9uueee3TvAw/r6TfWaE+VOwwAEBUCI4C2IX2XFv/hMb21YbM2rH5T//fDCRp+1u+0usId3io268UbZujWVwvcfgBomwiMANqOQCdNvOF3eviv/9TbHzytM9c8pMdWlknBSu3bmq91mwtUWh0at0IlxWWqqi7X3p27tN/dG1lVtE3r12/Tvkqnv2a8YJX2b8vXhp2l5mZZlqCC1RXa/Onn2la6X0WlVW45ALQ9BEYAbYp9grbRvrM6Z1aqvPBN3XJ0P42eNFMzTx2h3JPv1HvF1vCtj2vaqJm66qIxGjx0uv64tkgf33+mBg48QVPPGme1p+qhLyqs8eZY483QrIuP1/GTp+rEAb014a6PVR78Sn84a5J+8/FWzb9+vEac83utJTECaKMIjADalIp927V5w6d6+Y6f6Bnf2Zp5ZC+d+/hqrf/yE336xQLN2v+E5izf74y853OVzFiobwuW6abS+/T9hw7Rg5+v15q8dXr7xiI9eOcr2mXG27la1Ze8rtWr85T30oXa9uhjeq90iGa/8ZZuO6q3zn30U21afIuGulkVANqatNpjKOZiOi6rg3+UASSd6s91z5mjdfSJM/SrtafpyaW/1+Q+IzSwcK5+dvk0nXLipXp8Q5mKi93jzVljNXVKX6VbVeHmZYtV0KVQf//RBTr//It125L9Kv1qjb4NWON1PVHTT+4pkwc7Dz9GgwI7tavMfgWb35/hdgFAG+EGwVAeZA8jgLYjfbR++vZW7di2Xh+99Gud3TdDu+b9QKdcu0xHXPprPfHvl/S/x4Zdviezozq1Mx1BBaoDSus3WVf+6Fpdc801uvbGe/S3P1yo3mZwml/+UG2Zlq50ak4AKYZqD0BcmTu4lJaWun3ezMW7zfhe/H6/22VUa8vna5Q56fu6bMpY9Sv/QEs+N4ej6x879qnPMccqfeUK7R95mqZMmaIppx2p3od2VzfPWjLNml5AJaXlbj8AtE0ERgBxZcLZiy++aIdBLyZUmju9jB8/3i1pRINzCNM1bNr56vb3GRo6fLgGn/mC0oZ0sMobnnSTc8ov9Mfz12jW4N4aOmaU+vc6Vre+tc8d2pRemjDlUC285gQNn/qgvuRcHgBtlG/gwFznZoD1bg84MHeglnJrQAAxMHfuXC1btsxzT6O5aLcJl+eee65bUl+1yovLFGyXo/bhOxktgbICbd1epo69eimnuliV/g7KSitXSVlQmdnt5a8JmkFV7NmsTVZ27dyrt7pnp1svW288c5md0mplZGcpw35etUp2bFFB5mE6vEumKQCApGbfGnBdfs1tAZ17SRMYAQAA4GosMHJIGgAAAJ7S7FNu7D2LpqOmBQAAgBTmZELrMRhkDyMAAAC8ERgBAADgicAIAAAATwRGAAAAeCIwAgAAwBOBEQAAAJ7swFh7KR3TZS7jDQAAgFRVPwuyhxEAAACeCIwAAADwRGAEAACAJwIjAAAAPBEYAQAA4InACAAAAE9WYGzsIjpWGdfWAQAASFEmCNaGQfYwAgAAwBOBEQAAAJ4IjAAAAPBEYAQAAIAnAiMAAAA8ERgBAADgyTdg4MBg0FxFx3mQ/WO1cwfmaunSJe5oANB65s2bp0WLFqmkpMQtaSg7O1sTJkzQxRdf7JYAAFrDpEmnaV3+OvnMj89npUWrTWAEEE/PPvusioqKdPXVV9vtjh07Ntl+5JFH1KtXL02fPt19NgDgYGssMHJIGkBcLV++vCYsGl7ta665RgsXLrT724bai+ICQCIjMAKIK3MYOhQKD8SM53XYulWUbtQ7T/5WN189S1fNvk1/fOUL7d34qCb3v1Qv73XHCRPcOEfnH3uFXthh9Wx+pMnxVPqmrhs8TnfnBdyC+kq05slbdeeC3W4/AMQPgRFA3JnDzc3R3PEOltJVD2vakDG64pnN6jJirIZ126OFj72kr5vKeBZf57Ga+f1zNKKD0++1DzEYbOyFSpX/r7v13XGjdcr1c7UhmOGWA0D8EBgBxF1L9jDGTMm7+sUFv1LFT97X6jf+pNtnX6eb73hYr7zycx3rd8dRlfZvy1f+9hLVRL+OI3XeZWdrcJbbX09l4Rat/2aHiqvcggYKteL11Rp++yO66cj2bhkAxBeBEUDcJeIexsKlj+kf/it111XD1M4tqyOtQPOuHqdxZ0zVSbm9dPwdK2QfLN/6uKaN/IFeLbTHClOk9389UYf3H6czp56sI894QF+mN1YFH6ZL/vC0fn72IOXUxlAAiKu08OMldqd54DxsADGUeHsYg9qelyeNOlr9M92i+rZ/poqLFmjV53nKe/kSFTzxhN73OL2y4uN7dfWfeui+Vd/oy9V5+uT+Ydq+mUAIIEG5WTAUCdnDCCDuEvIcRp8UqKpqeh/fIRM045SeZjR1Gn6MBmm3CsqcQY3Z9M5S7Zl4iab2Sbf7Oxx1liYeZncCQMIjMAKIu8Tbw+hT79Gjlfb+61rZ4NCyy+eX38l+VnfaASrToKoqq5SWmanQU1RVrvImz2MEgMRCYAQQV+YOLi3Zw2jGj4UOp1yv6/vP13XXPKG8ktBBmSoV5K3RlhYHPZ96jR6lwNLn9dYus88yqF1vPqeF3zpDASDRERgBxNWUKVPsO7iEQqNX24w3fvx4u7/VZY7WrfNe0GW779S4nt3Uq18/9eneQ0O+95y2uaO0RKfJd+i+ySt02ZCBGj5yiE79v3Qd3Y8qGEBy8A0YMNDcFNC+HWDN7QHNrQFzuTUggNiYO3euli1bptLSUrekoaysLDtcnnvuuW5JrARVsXebtuwsVlrn3urTI0f+QLlKyoLKzG4vvzmJMVChktKAMqz+jGCFSq1hGVnt3PGs7JltdZvxFFDx9g3aHuihvr1yFCgpVSAzR+1rLtMTLqjqsmJV+Dsoq9HhANA67FsDrltXex9p+17SBEYAAAC4GguM7vEQOzLWdAEAACC1hWdCTqABAACAJwIjAAAAPBEYAQAA4InACAAAAE8ERgAAAHgiMAIAAMBTmv2V6ZrvTXNRHQAAgNQWngdNd5A9jAAAAPBGYAQAAIAnAiMAAAA8ERgBAADgicAIAAAATwRGAAAAePIIjFxiBwAAIHXVZkH2MAIAAMATgREAAACeCIwAAADwRGAEAACAJwIjAAAAPBEYAQAA4MkOjPaXps2D21HTCQAAgJTi5MCwJGh1+voPGBi0WD3WINOYH6s3N3eg3ly61B0TAFrPvHnztGjRIpWUlLglDWVnZ2vChAm6+OKL3RIAQGs4ddIkrVu3Tj6fz2nMD4ERQDw9++yzKioq0nnnnaesrCy3tKGCggItWLBAvXr10vTp091SAMDB1lhg5BxGAHG1fPlynXnmmZ5h0ejWrZtmzpyphQsXuiVtgfXfOQAkAQIjgLgyh6FNGGwOEyq9Dlu3itKNeufJ3+rmq2fpqtm36Y+vfKG9Gx/V5P6X6uW97jhhghvn6Pxjr9ALO6yezY80OZ5K39R1g8fp7ryAWxASVOGq53X3zVdq1nV36ukPdqv+GAAQawRGAGhC6aqHNW3IGF3xzGZ1GTFWw7rt0cLHXtLXHgnO13msZn7/HI3o4PR77UMMBht5oY1/1oUXPKaCwZN06oBvdP8Z43XL28XuQACIDwIjADSm5F394oJfqeIn72v1G3/S7bOv0813PKxXXvm5jvW746hK+7flK397Se1ewI4jdd5lZ2twE0fYKwu3aP03O1Rc5RbUE2x/qh54+1+659r/1ndveUi//55fby1aY00JAOKHwAgAjShc+pj+4b9Sd101TO3csjrSCjTv6nEad8ZUnZTbS8ffsUL2wfKtj2vayB/o1UJ7rDBFev/XE3V4/3E6c+rJOvKMB/RlesMq2NdzhEb2CJWXq2hfQB0P6ax0twQA4qGmtqp72IQTsQGksqC25+VJo45W/0y3qL7tn6niogVa9Xme8l6+RAVPPKH3PU6vrPj4Xl39px66b9U3+nJ1nj65f5i2b/Y6OzGgnQt+ph8vGaMfXjBIPrcUAGLGxEGrMS32MAJAY6yEFqiqavoLJ4dM0IxTetpBrtPwYzRIu1VQ5gxqzKZ3lmrPxEs0tY+zr7DDUWdp4mF2Z0PBQv3n3nN0wi1F+tnCp3RRb+IigPgiMAJAAz71Hj1aae+/rpUNDi27fH75Q8eJfWkHqEyDqqqsUlpmZu2h5apylTd2YmJwl16/8Tu6+pOZmv/B3/Q/gxs9IA4AMUVgBBBX5g4upaWlbp83c/FuM34sdDjlel3ff76uu+YJ5ZWETtOpUkHeGm1p8TdQfOo1epQCS5/XW7vMPsugdr35nBZ+6wwNV/Lub3Tre1M15/FZGp7l3FABAOKNwAggrqZMmaIXX3zRDoNeTKg0d3oZP368W9LKMkfr1nkv6LLdd2pcz27q1a+f+nTvoSHfe07b3FFaotPkO3Tf5BW6bMhADR85RKf+X7qO7tewCt6d94U2f3aPTunZWV26dHGasbdpZaU7AgDEQc2tAWtuD2h+rHZubi63BgQQE3PnztWyZcs89zSai3abcHnuuee6JbESVMXebdqys1hpnXurT48c+QPlKikLKjO7vfzm9MJAhUpKA8qw+jOCFSq1hmVktXPHs7JnttVtn4YYUPH2Ddoe6KG+vXIUKClVIDNH7Wsu02NNraJYRWXVbp/D589STnYG/+EDiImaWwOaH59VeZnbAxIYAQAAENJYYKz5h7XmO3j26TI1fQAAAEhFYXGQIxwAAADwRGAEAACAJwIjAAAAPBEYAQAA4InACAAAAE8ERgAAAHiyAqNz26m6N5+q2wcAAIDUxR5GAAAAeCIwAgAAwBOBEQAAAJ4IjAAAAPBEYAQAAIAnAiMAAAA8pXEFHQAAANRh8mFYRmQPIwAAADwRGAEAAOCJwAgAAABPBEYAAAB4IjACAADAE4ERAAAAntzA6Hxvuubb01xqBwAAIOWFIqGvf/8BwaDVaz1Yjf1gt3MH5erNpUvd0QCg9cybN0+LFi1SSUmJW9JQdna2JkyYoIsvvtgtAQC0hlMnTdK6r9fJ5/NZSdFntwmMAOLq2WefVVFRkc477zxlZWW5pQ0VFBRowYIF6tWrl6ZPn+6WAgAOtsYCI+cwAoir5cuX68wzz/QMi0a3bt00c+ZMLVy40C1pC0IHewAgsREYAcSVOQxtwmBzmFDpddi6VZRu1DtP/lY3Xz1LV82+TX985Qvt3fioJve/VC/vdccJE9w4R+cfe4Ve2GH1bH6kyfFU+qauGzxOd+cF3IKQoApXPa+7b75Ss667U09/sFv1xwCAWCMwAkATSlc9rGlDxuiKZzary4ixGtZtjxY+9pK+9khwvs5jNfP752hEB6ffax9iMNjIC238sy684DEVDJ6kUwd8o/vPGK9b3i52BwJAfBAYAaAxJe/qFxf8ShU/eV+r3/iTbp99nW6+42G98srPdazfHUdV2r8tX/nbS2r3AnYcqfMuO1uDmzjCXlm4Reu/2aHiKregnmD7U/XA2//SPdf+t757y0P6/ff8emvRGmtKABA/YYGRc2kAIKRw6WP6h/9K3XXVMLVzy+pIK9C8q8dp3BlTdVJuLx1/xwrZB8u3Pq5pI3+gVwvtscIU6f1fT9Th/cfpzKkn68gzHtCX6Q3/Z/f1HKGRPULl5SraF1DHQzor3S0BgNgLsocRABoKantenjTqaPXPdIvq2/6ZKi5aoFWf5ynv5UtU8MQTet/j9MqKj+/V1X/qoftWfaMvV+fpk/uHaftmr7MTA9q54Gf68ZIx+uEFg+RzSwEgHgiMANAYK6EFqqqa/sLJIRM045SedpDrNPwYDdJuFZQ5gxqz6Z2l2jPxEk3t4+wr7HDUWZp4mN3ZULBQ/7n3HJ1wS5F+tvApXdSbuAggvgiMANCAT71Hj1ba+69rZYNDyy6fX/7QcWJf2gEq06CqKquUlplZe2i5qlzljZ2YGNyl12/8jq7+ZKbmf/A3/c/gRg+IA0BMERgBxJW5g0tpaanb581cvNuMHwsdTrle1/efr+uueUJ5JaFzvKtUkLdGW1r8DRSfeo0epcDS5/XWLrPPMqhdbz6nhd86Q8OVvPsb3freVM15fJaGZzk3UgCAeCMwAoirKVOm6MUXX7TDoBcTKs2dXsaPH++WtLLM0bp13gu6bPedGtezm3r166c+3XtoyPee0zZ3lJboNPkO3Td5hS4bMlDDRw7Rqf+XrqP7NayCd+d9oc2f3aNTenZWly5dnGbsbVpZ6Y4AAHEQdmtA5/aA5oFbAwKIpblz52rZsmWeexrNRbtNuDz33HPdklgJqmLvNm3ZWay0zr3Vp0eO/IFylZQFlZndXn5zemGgQiWlAWVY/RnBCpVawzKy2rnjWdkz2+q2T0MMqHj7Bm0P9FDfXjkKlJQqkJmj9jWX6bGmVlGsorJqt8/h82cpJzuD//ABxETDWwMSGAEAABCmscDIP6wAAADwRGAEAACAJwIjAAAAPBEYAQAA4InACAAAAE8ERgAAAHgiMAIAAKAu+9qxIT4CIwAAALwRGAEAAOCJwAgAAABPBEYAAAB4IjACAADAE4ERAAAAnuoFxqDbBgAAQMqqFwnZwwgAAABPBEYAAAB4IjACAADAE4ERAAAAngiMAAAA8ERgBAAAgKd6gdFXpwUAAIBUF2QPIwAAALwRGAEAAOCJwAgAAABPBEYAAAB4IjACAADAE4ERAAAAngiMAAAAqKveJRYJjAAAAPBEYAQAAIAnAiMAAAA8ERgBAADgicAIAAAATwRGAAAAeCIwAgAAoFHO1XV8BEYAAAB4IzACAADAE4ERAAAAngiMAAAA8ERgBAAAgCcCIwAAADylOd+Xdr40DQAAANTHHkYAAAB4IjACAADAE4ERAAAAngiMAAAA8ERgBAAAgCcCIwAAADyFBUYfV9gBAABAHSYasocRAAAAngiMAAAA8ERgBAAAgCcrMDZ20qJ7PiMAAABSkwmDbiC0AmPQ7rD7SYkAAAApzcmJdUNh3T2MTna0S6qqq7Vz506nAAAAAG2eyX5VVdVuX63acxidOBl6UHlZudZ+9ZXdDQAAgLbPZL+y8jK3z92paLXswOj22kLd5RXl+mrtWrcPAAAAbZ3JfhXlFXa3kwmdR2cPY01idDus1v6i/Xrmmb9r8+bNThkAAADaLJP5TPbbv39/WDY0fErz2QXmoTYsGpWVlfr222/10MMPOwUAAABos0zmM9nPZECblQndWKj0rl27/tLtVm14dJhj2Lt37da6des0bNgwderUyR0CAACAtsDsWfztb+/SkqVLtHv3brvMZ0Kh1dgt8zNg4MBg0Hw72nqwf+p3Wzp37qTDDjtM3730Ug0ePFhDhgxRjx49nIEAAABIKubb0GvXrtVXX32lvz3zjL1ncV/hPmegGxKdwOiGxgEDc+1kGAqIbnp0wmJYeUaGXx07dFRmu0y1b9de6elp1hB7VA+eAz1F/MzIJxmF2E80ud5mXOY25lJk07OkxvqMD6tWTgVxeJspsmQtEb7TlFknsZ+qCVux5zFRa5AZai6dU15epvKKCvucxcrKqpq9iU5QDO+2GjswWh8AdQOiXWS3zY/zG1buPNS0m2IPj1SET43HNKMR8fxGPK+Rv8k4LJ7kWifJJkXeJg7AfHKgSfYHZqxFMcnIn5o87zMe68Q+PBtrUUzScxlZg+zhdUKh03YOQ4fKwodbjwOtwGg+IE0WrA2M5hVN2+qwf+t2N2g3wX5OrEUxSa/34ikubzMF5jUacZhkNOKyjIA4sT+AUkGEbzO6pROXiUYkLttBxIsninlNsGnar2v/hretx/Ay0x8qN8+xA2OuFRjNZ5X1YH9omd8G3fWGmx+n0P5tivvMyET41FSZZqSimtdIxWGS0Uw0yWYXrSQefytO1YwmxWHxRDfJCJ+dRJtBXLbZKCYZ8fy2pWnag6wxrLY9Xk07vMzptvtMt+kamDvIqhdN1Wi3rFqyYbfzW9uuv7exKfbwWItikhHPb1zeZgrMazTiMMloJhqX2U0VybRw7Qq67YvP24zDVOMyyRhPNIrJxXxejQgnGdW8xmOaXkIB0EmHznTcslB/o4emawOjVa86KdEJi3bb6rB/3bY7njN+aJgH54Ui4k4ptiKcZFTzGuO3mUzzGo24bD/RSLLZjVzKvNEYs2rzVJBkb9P9CI6tGE8y2d5jxPObZNP0erI9xHqw5ysUBp2COmV2n+m2O622HRjNx6tdj7ttNxjWCZBumdO2uuxfp90U9xmRifCpUU0zUlG9zRjPb1wWT3Ktk0jF5X2i9cRjddo1M5rifnQljzjMbsyXUbK9xwifGpdtz0ltEfF8pjXQfj/m156G++5MKHQ67PLwMtPnyx00yM2Fzsed0xNqW2U1w6wO+7eRdlM8Bh2I5+t6iWKakYp4XqMQWk8xFYdJRioe6ySZlk+8xGW9pAC3aoeXOCyiuKyXJNoUnLASWxGvk6hmNbInt9Yk7WVg/4a33SUTFhDtDrvIGWYFxsFW9nAq8eaERGdUt999XlPs50UqwqfGY5rRiGp+IxHV4onDAopUKqzLaCXZ7KKVOJ8JScH9SEsecZjdmC+jVHiPhhueIhHxM6N4m57LyBpkD7dHsbrC+p22+2zTdjqsttWYwOiEQ4vbDgVH59ceXDOsph1W3hpCU2mxKGYn4mlGI8aTTLb3GJf5jVQSzWoqSaZtyK2m0RqSaNFGtR3E+H3GZZuNyyRjv05abdlaL+vsNXRfv15AtPtq2mHDBpk9jFZ3nb2L9dvWg9PbRLtJ3kM9RfjUA82RpyieGqmI5zeZ5jUeWD6IVjxWp10zozW4H3uxlUTrM5mWT7Kty4jnN6q32fST7SHhQbB+2+mw23apXSD9/8wUK/Q56FndAAAAAElFTkSuQmCC;" vertex="1" parent="1">
          <mxGeometry x="1298" y="220" width="652" height="345" as="geometry" />
        </mxCell>
      </root>
    </mxGraphModel>
  </diagram>
</mxfile>
